<?xml version="1.0" encoding="UTF-8"?><svg id="Layer_1" xmlns="http://www.w3.org/2000/svg" viewBox="0 0 337.96 278.98"><defs><style>.cls-1{fill:#231f20;}</style></defs><path class="cls-1" d="M132.19,203.84c-7.65,25.74-26.67,45.22-60.99,45.22C24.58,249.06,0,211.96,0,166.27S24.12,82.55,71.43,82.55c35.02,0,55.66,19.48,60.99,46.61h-12.52c-7.42-21.1-21.1-35.02-49.16-35.02-40.35,0-57.28,36.87-57.28,71.89s16.7,71.43,58.21,71.43c26.44,0,39.89-13.68,48-33.63h12.52Z"/><path class="cls-1" d="M156.79,200c0,61.3-16,78.98-37.57,78.98-6.96,0-9.97-1.18-13.91-2.36v-19.25c3.25,1.18,9.04,1.97,14.38,1.97,21.8,0,24.58-28.68,24.58-59.72V0h12.52V200Z"/><path class="cls-1" d="M174.86,167.33c.08,10.06,5.15,16.3,12.64,16.3s9.83-4.13,11.23-7.33h3.98c-1.64,5.15-5.77,11-15.37,11-11.86,0-16.46-10.22-16.46-20.12,0-11.15,5.54-20.75,16.93-20.75,12.01,0,15.83,10.37,15.83,17.71,0,1.09,0,2.18-.08,3.2h-28.7Zm24.73-3.44c-.08-7.72-4.29-13.81-11.93-13.81-8.03,0-11.7,5.62-12.56,13.81h24.49Z"/><path class="cls-1" d="M214.1,175.6c1.33,5.07,4.91,8.11,11.08,8.11,6.94,0,9.75-3.2,9.75-7.57s-1.87-6.63-10.61-8.74c-10.06-2.42-12.56-5.46-12.56-10.61s4.06-10.37,12.87-10.37,13.03,5.38,13.65,10.92h-3.9c-.7-3.28-3.28-7.33-9.91-7.33s-8.74,3.35-8.74,6.47c0,3.59,1.87,5.38,9.59,7.25,11,2.65,13.73,6.24,13.73,12.09,0,7.1-5.77,11.47-13.96,11.47-8.89,0-13.88-4.68-14.98-11.7h3.99Z"/><path class="cls-1" d="M248.73,128.87h3.9v7.57h-3.9v-7.57Zm0,18.49h3.9v39h-3.9v-39Z"/><path class="cls-1" d="M295.22,183.71c0,12.48-5.54,19.03-16.85,19.03-10.14,0-14.35-5.69-15.29-11.62h3.98c1.4,5.38,5.85,7.96,11.47,7.96,10.14,0,12.95-6.55,12.95-16.46v-4.06c-2.11,5.07-5.93,7.8-13.03,7.8-9.13,0-16.15-7.41-16.15-19.5,0-13.1,7.49-20.44,16.69-20.44,7.96,0,11.39,3.74,12.48,6.86,.08-2.26,.16-4.99,.23-5.93h3.67c0,1.4-.16,7.57-.16,11.31v25.04h0Zm-28.78-16.99c0,9.28,4.91,15.99,12.4,15.99,9.75,0,12.71-6.47,12.71-16.61s-3.12-15.99-12.48-15.99-12.64,7.72-12.64,16.61h.01Z"/><path class="cls-1" d="M308.01,157.19c0-3.43,0-6.71-.08-9.83h3.82c.16,1.25,.23,6.32,.16,7.41,1.72-3.98,4.92-8.35,12.95-8.35,6.94,0,13.1,3.9,13.1,14.66v25.27h-3.9v-24.65c0-6.94-2.89-11.47-9.67-11.47-9.28,0-12.48,7.72-12.48,16.22v19.89h-3.9v-29.15Z"/></svg>